<?xml version="1.0" encoding="UTF-8"?>
<svg xmlns="http://www.w3.org/2000/svg" xmlns:xlink="http://www.w3.org/1999/xlink" width="58px" height="14px" viewBox="0 0 58 14" version="1.1">
<g id="surface1">
<path style=" stroke:none;fill-rule:nonzero;fill:rgb(0%,0%,0%);fill-opacity:1;" d="M 0.542969 1.082031 L 0.542969 2.160156 L 1.300781 1.34375 C 1.976562 0.605469 2.210938 0.527344 3.515625 0.527344 C 4.324219 0.527344 4.976562 0.605469 4.976562 0.683594 C 4.976562 0.765625 3.90625 2.347656 2.605469 4.164062 C 1.300781 5.984375 0.179688 7.644531 0.101562 7.832031 C -0.00390625 8.09375 0.753906 8.171875 3.777344 8.171875 L 7.585938 8.171875 L 7.585938 6.855469 C 7.585938 5.40625 7.21875 5.089844 6.957031 6.328125 C 6.855469 6.855469 6.59375 7.222656 6.148438 7.382812 C 5.394531 7.671875 2.367188 7.75 2.367188 7.488281 C 2.367188 7.382812 3.492188 5.722656 4.847656 3.796875 C 6.203125 1.871094 7.324219 0.238281 7.324219 0.15625 C 7.324219 0.078125 5.8125 0 3.933594 0 L 0.542969 0 Z M 0.542969 1.082031 "/>
<path style=" stroke:none;fill-rule:nonzero;fill:rgb(0%,0%,0%);fill-opacity:1;" d="M 14.753906 3.375 C 13.921875 5.5625 13.21875 6.960938 12.722656 7.433594 L 11.964844 8.171875 L 13.425781 8.171875 C 14.234375 8.171875 14.886719 8.042969 14.886719 7.910156 C 14.886719 7.75 14.703125 7.644531 14.496094 7.644531 C 14.078125 7.644531 14.023438 7.328125 14.261719 6.378906 C 14.417969 5.851562 14.597656 5.800781 15.953125 5.800781 C 17.390625 5.800781 17.519531 5.851562 17.753906 6.484375 C 18.121094 7.433594 18.09375 7.566406 17.441406 7.804688 C 16.945312 7.960938 17.023438 8.015625 17.964844 8.09375 C 18.5625 8.148438 19.554688 8.171875 20.179688 8.121094 C 21.25 8.015625 21.25 8.015625 20.597656 7.726562 C 19.894531 7.410156 19.8125 7.222656 17.597656 1.765625 C 17.128906 0.632812 16.738281 0 16.476562 0 C 16.191406 0 15.667969 1.027344 14.753906 3.375 Z M 16.839844 3.953125 L 17.207031 5.007812 L 16.058594 5.007812 C 15.40625 5.007812 14.886719 4.957031 14.886719 4.902344 C 14.886719 4.851562 15.042969 4.402344 15.25 3.929688 C 15.433594 3.425781 15.667969 2.792969 15.773438 2.503906 C 15.953125 2.03125 15.980469 2.003906 16.214844 2.425781 C 16.347656 2.6875 16.632812 3.375 16.839844 3.953125 Z M 16.839844 3.953125 "/>
<path style=" stroke:none;fill-rule:nonzero;fill:rgb(0%,0%,0%);fill-opacity:1;" d="M 25.316406 0.261719 C 25.316406 0.394531 25.472656 0.527344 25.683594 0.527344 C 26.203125 0.527344 26.359375 1.371094 26.359375 4.085938 C 26.359375 6.777344 26.203125 7.644531 25.683594 7.644531 C 25.5 7.644531 25.265625 7.75 25.1875 7.910156 C 25.082031 8.066406 25.785156 8.171875 27.117188 8.171875 C 28.339844 8.171875 29.226562 8.066406 29.226562 7.910156 C 29.226562 7.75 28.992188 7.644531 28.707031 7.644531 C 28.367188 7.644531 28.082031 7.382812 27.925781 6.960938 C 27.585938 6.089844 27.585938 4.480469 27.925781 4.480469 C 28.054688 4.480469 28.863281 5.300781 29.671875 6.328125 C 31.132812 8.148438 31.183594 8.171875 32.410156 8.171875 C 33.816406 8.171875 34 7.9375 32.957031 7.433594 C 32.539062 7.25 31.730469 6.484375 31.132812 5.746094 L 30.011719 4.375 L 30.742188 4.058594 C 32.488281 3.320312 32.332031 0.976562 30.53125 0.34375 C 29.410156 -0.0507812 25.316406 -0.105469 25.316406 0.261719 Z M 29.933594 1.082031 C 30.347656 1.449219 30.375 2.953125 29.957031 3.375 C 29.777344 3.558594 29.203125 3.691406 28.65625 3.691406 L 27.664062 3.691406 L 27.664062 2.292969 C 27.664062 1.503906 27.742188 0.789062 27.847656 0.683594 C 28.105469 0.421875 29.460938 0.710938 29.933594 1.082031 Z M 29.933594 1.082031 "/>
<path style=" stroke:none;fill-rule:nonzero;fill:rgb(0%,0%,0%);fill-opacity:1;" d="M 40.050781 3.375 C 39.214844 5.5625 38.511719 6.960938 38.015625 7.433594 L 37.261719 8.171875 L 38.71875 8.171875 C 39.527344 8.171875 40.179688 8.042969 40.179688 7.910156 C 40.179688 7.75 39.996094 7.644531 39.789062 7.644531 C 39.371094 7.644531 39.320312 7.328125 39.554688 6.378906 C 39.710938 5.851562 39.894531 5.800781 41.25 5.800781 C 42.683594 5.800781 42.8125 5.851562 43.050781 6.484375 C 43.414062 7.433594 43.386719 7.566406 42.734375 7.804688 C 42.242188 7.960938 42.320312 8.015625 43.257812 8.09375 C 43.855469 8.148438 44.847656 8.171875 45.472656 8.121094 C 46.542969 8.015625 46.542969 8.015625 45.890625 7.726562 C 45.1875 7.410156 45.109375 7.222656 42.890625 1.765625 C 42.421875 0.632812 42.03125 0 41.769531 0 C 41.484375 0 40.960938 1.027344 40.050781 3.375 Z M 42.136719 3.953125 L 42.5 5.007812 L 41.355469 5.007812 C 40.703125 5.007812 40.179688 4.957031 40.179688 4.902344 C 40.179688 4.851562 40.335938 4.402344 40.546875 3.929688 C 40.726562 3.425781 40.960938 2.792969 41.066406 2.503906 C 41.25 2.03125 41.277344 2.003906 41.511719 2.425781 C 41.640625 2.6875 41.925781 3.375 42.136719 3.953125 Z M 42.136719 3.953125 "/>
<path style=" stroke:none;fill-rule:nonzero;fill:rgb(0%,0%,0%);fill-opacity:1;" d="M 50.871094 1.082031 L 50.871094 2.160156 L 51.628906 1.34375 C 52.304688 0.605469 52.539062 0.527344 53.84375 0.527344 C 54.652344 0.527344 55.304688 0.605469 55.304688 0.683594 C 55.304688 0.765625 54.234375 2.347656 52.933594 4.164062 C 51.628906 5.984375 50.507812 7.644531 50.429688 7.832031 C 50.324219 8.09375 51.082031 8.171875 54.105469 8.171875 L 57.914062 8.171875 L 57.914062 6.855469 C 57.914062 5.40625 57.546875 5.089844 57.285156 6.328125 C 57.183594 6.855469 56.921875 7.222656 56.480469 7.382812 C 55.722656 7.671875 52.699219 7.75 52.699219 7.488281 C 52.699219 7.382812 53.820312 5.722656 55.175781 3.796875 C 56.53125 1.871094 57.652344 0.238281 57.652344 0.15625 C 57.652344 0.078125 56.140625 0 54.261719 0 L 50.871094 0 Z M 50.871094 1.082031 "/>
<path style=" stroke:none;fill-rule:nonzero;fill:rgb(0%,0%,0%);fill-opacity:1;" d="M 9.148438 12.15625 L 9.148438 14 L 10.085938 13.921875 C 11.15625 13.84375 11.679688 13.234375 11.367188 12.496094 C 11.261719 12.207031 11.183594 11.707031 11.210938 11.363281 C 11.289062 10.625 10.871094 10.28125 9.878906 10.28125 C 9.148438 10.28125 9.148438 10.28125 9.148438 12.15625 Z M 10.480469 11.46875 C 10.453125 11.863281 9.851562 11.785156 9.722656 11.390625 C 9.644531 11.152344 9.773438 11.046875 10.035156 11.125 C 10.296875 11.152344 10.480469 11.3125 10.480469 11.46875 Z M 10.714844 12.945312 C 10.714844 13.078125 10.480469 13.183594 10.191406 13.183594 C 9.695312 13.183594 9.515625 12.894531 9.828125 12.578125 C 10.035156 12.367188 10.714844 12.65625 10.714844 12.945312 Z M 10.714844 12.945312 "/>
<path style=" stroke:none;fill-rule:nonzero;fill:rgb(0%,0%,0%);fill-opacity:1;" d="M 14.753906 10.941406 C 14.390625 11.285156 14.105469 11.863281 14.105469 12.207031 C 14.105469 13 15.121094 13.972656 15.953125 13.972656 C 16.761719 13.972656 17.753906 12.972656 17.753906 12.15625 C 17.753906 11.417969 16.660156 10.28125 15.929688 10.28125 C 15.640625 10.28125 15.09375 10.574219 14.753906 10.941406 Z M 16.710938 11.46875 C 16.894531 11.707031 16.972656 12.128906 16.867188 12.523438 C 16.710938 13.105469 16.582031 13.210938 15.851562 13.128906 C 15.199219 13.078125 14.988281 12.917969 14.9375 12.445312 C 14.753906 11.285156 16.007812 10.597656 16.710938 11.46875 Z M 16.710938 11.46875 "/>
<path style=" stroke:none;fill-rule:nonzero;fill:rgb(0%,0%,0%);fill-opacity:1;" d="M 20.363281 11.679688 C 20.363281 13.210938 20.859375 13.972656 21.847656 13.972656 C 22.734375 13.972656 23.230469 13.128906 23.230469 11.628906 C 23.230469 9.753906 22.605469 9.914062 22.5 11.8125 C 22.421875 13.078125 22.371094 13.183594 21.769531 13.183594 C 21.171875 13.183594 21.144531 13.105469 21.144531 11.734375 C 21.144531 10.625 21.066406 10.28125 20.753906 10.28125 C 20.464844 10.28125 20.363281 10.625 20.363281 11.679688 Z M 20.363281 11.679688 "/>
<path style=" stroke:none;fill-rule:nonzero;fill:rgb(0%,0%,0%);fill-opacity:1;" d="M 26.019531 10.441406 C 25.683594 10.785156 25.839844 11.074219 26.359375 11.074219 C 26.828125 11.074219 26.882812 11.257812 26.882812 12.523438 C 26.882812 13.316406 27.011719 13.972656 27.140625 13.972656 C 27.296875 13.972656 27.402344 13.316406 27.402344 12.523438 C 27.402344 11.230469 27.453125 11.074219 27.949219 11.074219 C 28.261719 11.074219 28.445312 10.941406 28.394531 10.730469 C 28.261719 10.386719 26.332031 10.152344 26.019531 10.441406 Z M 26.019531 10.441406 "/>
<path style=" stroke:none;fill-rule:nonzero;fill:rgb(0%,0%,0%);fill-opacity:1;" d="M 31.054688 12.128906 C 31.054688 13.605469 31.132812 13.972656 31.445312 13.972656 C 31.757812 13.972656 31.835938 13.605469 31.835938 12.128906 C 31.835938 10.652344 31.757812 10.28125 31.445312 10.28125 C 31.132812 10.28125 31.054688 10.652344 31.054688 12.128906 Z M 31.054688 12.128906 "/>
<path style=" stroke:none;fill-rule:nonzero;fill:rgb(0%,0%,0%);fill-opacity:1;" d="M 35.226562 10.914062 C 33.894531 12.390625 34.835938 13.972656 37.078125 13.972656 L 38.355469 13.972656 L 38.171875 12.707031 C 37.910156 10.492188 36.453125 9.625 35.226562 10.914062 Z M 37.3125 11.601562 C 37.703125 12.339844 37.207031 13.183594 36.398438 13.183594 C 36.035156 13.183594 35.644531 12.972656 35.488281 12.65625 C 35.09375 11.917969 35.589844 11.074219 36.398438 11.074219 C 36.765625 11.074219 37.15625 11.285156 37.3125 11.601562 Z M 37.3125 11.601562 "/>
<path style=" stroke:none;fill-rule:nonzero;fill:rgb(0%,0%,0%);fill-opacity:1;" d="M 41.042969 10.679688 C 40.832031 11.257812 41.121094 13.128906 41.484375 13.578125 C 41.902344 14.105469 43.152344 14.078125 43.597656 13.550781 C 44.039062 13.023438 44.066406 10.492188 43.648438 10.363281 C 43.441406 10.28125 43.308594 10.703125 43.257812 11.652344 C 43.179688 12.945312 43.128906 13.050781 42.527344 13.050781 C 41.925781 13.050781 41.875 12.945312 41.796875 11.652344 C 41.71875 10.335938 41.378906 9.859375 41.042969 10.679688 Z M 41.042969 10.679688 "/>
<path style=" stroke:none;fill-rule:nonzero;fill:rgb(0%,0%,0%);fill-opacity:1;" d="M 46.960938 12.101562 L 46.960938 13.972656 L 48.265625 13.972656 C 49.253906 13.972656 49.566406 13.867188 49.566406 13.578125 C 49.566406 13.316406 49.28125 13.183594 48.65625 13.183594 C 48.03125 13.183594 47.742188 13.050781 47.742188 12.789062 C 47.742188 12.523438 48.003906 12.390625 48.523438 12.390625 C 48.96875 12.390625 49.308594 12.261719 49.308594 12.128906 C 49.308594 11.96875 48.96875 11.863281 48.523438 11.863281 C 48.003906 11.863281 47.742188 11.734375 47.742188 11.46875 C 47.742188 11.179688 48.03125 11.074219 48.679688 11.074219 C 50.089844 11.074219 49.644531 10.441406 48.1875 10.335938 L 46.960938 10.257812 Z M 46.960938 12.101562 "/>
</g>
</svg>
