<?xml version="1.0" encoding="UTF-8"?>
<svg xmlns="http://www.w3.org/2000/svg" xmlns:xlink="http://www.w3.org/1999/xlink" width="76px" height="27px" viewBox="0 0 76 27" version="1.1">
<g id="surface1">
<path style=" stroke:none;fill-rule:nonzero;fill:rgb(0%,0%,0%);fill-opacity:1;" d="M 20.832031 0.78125 C 20.195312 1.1875 19.636719 1.550781 19.589844 1.578125 C 19.539062 1.605469 19.617188 2.054688 19.773438 2.585938 C 19.953125 3.269531 20.011719 3.6875 19.972656 4.023438 C 19.945312 4.289062 19.53125 5.9375 19.050781 7.699219 C 18.578125 9.445312 18.183594 10.980469 18.183594 11.105469 C 18.183594 11.246094 18.25 11.316406 18.355469 11.289062 C 18.558594 11.234375 18.78125 10.578125 19.648438 7.417969 C 20.011719 6.0625 20.351562 4.902344 20.386719 4.847656 C 20.425781 4.792969 20.890625 6.21875 21.410156 8.035156 L 22.351562 11.316406 L 23.789062 11.316406 C 24.964844 11.316406 25.214844 11.289062 25.214844 11.121094 C 25.214844 10.898438 22.160156 0.265625 22.054688 0.125 C 22.015625 0.0703125 21.46875 0.363281 20.832031 0.78125 Z M 20.832031 0.78125 "/>
<path style=" stroke:none;fill-rule:nonzero;fill:rgb(0%,0%,0%);fill-opacity:1;" d="M 54.207031 0.347656 C 53.964844 0.53125 53.4375 0.894531 53.023438 1.132812 C 52.464844 1.480469 52.28125 1.648438 52.320312 1.816406 C 52.347656 1.929688 52.464844 2.417969 52.589844 2.890625 L 52.800781 3.746094 L 52.597656 4.707031 C 52.492188 5.226562 52.070312 6.816406 51.664062 8.242188 C 51.257812 9.65625 50.933594 10.925781 50.933594 11.050781 C 50.933594 11.21875 50.988281 11.273438 51.132812 11.21875 C 51.355469 11.136719 51.441406 10.855469 52.425781 7.335938 C 52.78125 6.023438 53.109375 4.917969 53.148438 4.847656 C 53.175781 4.792969 53.609375 6.148438 54.109375 7.851562 C 54.601562 9.570312 55.027344 11.007812 55.0625 11.066406 C 55.09375 11.105469 55.757812 11.175781 56.546875 11.207031 C 57.597656 11.234375 57.964844 11.207031 57.964844 11.078125 C 57.964844 10.925781 55.421875 2.039062 54.96875 0.585938 C 54.871094 0.265625 54.757812 0 54.707031 0 C 54.667969 0.015625 54.449219 0.167969 54.207031 0.347656 Z M 54.207031 0.347656 "/>
<path style=" stroke:none;fill-rule:nonzero;fill:rgb(0%,0%,0%);fill-opacity:1;" d="M 0.988281 0.445312 C 0.921875 0.726562 0.480469 6.0625 0.515625 6.132812 C 0.625 6.316406 0.875 5.882812 1.183594 5 C 1.703125 3.519531 2.125 2.738281 2.78125 2.109375 C 3.742188 1.171875 4.496094 0.976562 7.277344 0.976562 C 8.589844 0.976562 9.226562 1.019531 9.226562 1.132812 C 9.226562 1.203125 8.714844 2.667969 8.078125 4.375 C 6.210938 9.472656 5.660156 10.996094 5.660156 11.164062 C 5.660156 11.273438 6.105469 11.316406 7.210938 11.289062 L 8.753906 11.246094 L 10.003906 7.894531 C 12.09375 2.320312 12.597656 0.878906 12.597656 0.574219 L 12.597656 0.28125 L 6.816406 0.28125 C 2.269531 0.28125 1.019531 0.320312 0.988281 0.445312 Z M 0.988281 0.445312 "/>
<path style=" stroke:none;fill-rule:nonzero;fill:rgb(0%,0%,0%);fill-opacity:1;" d="M 31.339844 0.40625 C 31.242188 0.613281 31.378906 0.9375 31.621094 1.089844 C 31.746094 1.171875 31.945312 1.507812 32.0625 1.832031 C 32.3125 2.558594 32.429688 4.667969 32.4375 8.621094 L 32.4375 11.316406 L 35.136719 11.316406 L 35.15625 6.175781 L 35.183594 1.046875 L 36.183594 1.007812 C 37.71875 0.949219 38.785156 1.507812 39.710938 2.851562 C 41.097656 4.863281 41.308594 8.410156 40.171875 10.644531 L 39.835938 11.316406 L 40.820312 11.316406 C 41.898438 11.316406 42.128906 11.207031 42.609375 10.449219 C 43.449219 9.125 43.84375 7.125 43.613281 5.308594 C 43.253906 2.429688 41.65625 0.878906 38.59375 0.417969 C 37.390625 0.25 31.40625 0.238281 31.339844 0.40625 Z M 31.339844 0.40625 "/>
<path style=" stroke:none;fill-rule:nonzero;fill:rgb(0%,0%,0%);fill-opacity:1;" d="M 64.175781 0.445312 C 64.109375 0.699219 63.664062 6.0625 63.703125 6.132812 C 63.820312 6.316406 64.082031 5.855469 64.4375 4.820312 C 65.082031 2.933594 65.957031 1.789062 67.132812 1.300781 C 67.808594 1.019531 72.410156 0.851562 72.410156 1.105469 C 72.410156 1.203125 71.902344 2.667969 71.265625 4.375 C 69.40625 9.429688 68.847656 10.996094 68.847656 11.164062 C 68.847656 11.273438 69.292969 11.316406 70.398438 11.289062 L 71.941406 11.246094 L 73.203125 7.894531 C 75.089844 2.820312 75.890625 0.558594 75.832031 0.417969 C 75.734375 0.195312 64.234375 0.238281 64.175781 0.445312 Z M 64.175781 0.445312 "/>
<path style=" stroke:none;fill-rule:nonzero;fill:rgb(0%,0%,0%);fill-opacity:1;" d="M 20.109375 14.949219 L 20.109375 16.765625 L 20.570312 16.765625 C 21.128906 16.765625 21.476562 16.527344 21.59375 16.054688 C 21.699219 15.59375 21.59375 14.949219 21.410156 14.949219 C 21.234375 14.949219 21.234375 14.921875 21.371094 14.472656 C 21.554688 13.902344 21.410156 13.441406 20.996094 13.285156 C 20.800781 13.203125 20.523438 13.132812 20.378906 13.132812 L 20.109375 13.132812 Z M 21.015625 13.636719 C 21.226562 13.761719 21.207031 14.347656 20.984375 14.53125 C 20.542969 14.867188 20.300781 14.640625 20.300781 13.886719 C 20.300781 13.609375 20.351562 13.550781 20.582031 13.550781 C 20.734375 13.550781 20.929688 13.59375 21.015625 13.636719 Z M 21.199219 15.144531 C 21.390625 15.355469 21.417969 15.96875 21.246094 16.164062 C 21.179688 16.25 20.964844 16.347656 20.773438 16.402344 C 20.496094 16.472656 20.40625 16.445312 20.359375 16.261719 C 20.261719 15.898438 20.292969 15.300781 20.417969 15.117188 C 20.570312 14.894531 20.984375 14.90625 21.199219 15.144531 Z M 21.199219 15.144531 "/>
<path style=" stroke:none;fill-rule:nonzero;fill:rgb(0%,0%,0%);fill-opacity:1;" d="M 25.40625 13.441406 C 24.984375 13.859375 24.828125 14.292969 24.828125 15.0625 C 24.828125 15.578125 24.886719 15.761719 25.148438 16.136719 C 25.707031 16.949219 26.398438 16.960938 26.917969 16.164062 C 27.304688 15.59375 27.402344 14.894531 27.167969 14.265625 C 26.792969 13.230469 26.003906 12.855469 25.40625 13.441406 Z M 26.71875 14.027344 C 27.074219 14.542969 27.113281 14.851562 26.910156 15.578125 C 26.746094 16.136719 26.503906 16.347656 26.015625 16.347656 C 25.089844 16.332031 24.714844 14.769531 25.417969 13.914062 C 25.851562 13.382812 26.300781 13.425781 26.71875 14.027344 Z M 26.71875 14.027344 "/>
<path style=" stroke:none;fill-rule:nonzero;fill:rgb(0%,0%,0%);fill-opacity:1;" d="M 30.609375 14.460938 C 30.609375 15.1875 30.65625 15.925781 30.714844 16.109375 C 30.839844 16.515625 31.175781 16.765625 31.570312 16.765625 C 32.265625 16.765625 32.4375 16.304688 32.4375 14.460938 C 32.4375 13.734375 32.398438 13.132812 32.351562 13.132812 C 32.21875 13.132812 32.179688 13.496094 32.160156 14.808594 C 32.140625 15.816406 32.109375 16.039062 31.945312 16.234375 C 31.8125 16.402344 31.65625 16.457031 31.484375 16.402344 C 30.90625 16.191406 30.898438 16.179688 30.898438 14.601562 C 30.898438 13.382812 30.867188 13.132812 30.753906 13.132812 C 30.636719 13.132812 30.609375 13.371094 30.609375 14.460938 Z M 30.609375 14.460938 "/>
<path style=" stroke:none;fill-rule:nonzero;fill:rgb(0%,0%,0%);fill-opacity:1;" d="M 35.617188 13.34375 C 35.617188 13.484375 35.714844 13.550781 35.90625 13.550781 L 36.195312 13.550781 L 36.195312 15.171875 C 36.195312 16.359375 36.222656 16.78125 36.308594 16.738281 C 36.367188 16.710938 36.425781 16.402344 36.4375 16.054688 C 36.445312 15.71875 36.453125 15.019531 36.464844 14.503906 C 36.484375 13.621094 36.492188 13.566406 36.726562 13.523438 C 37.246094 13.425781 36.984375 13.203125 36.320312 13.160156 C 35.742188 13.132812 35.617188 13.160156 35.617188 13.34375 Z M 35.617188 13.34375 "/>
<path style=" stroke:none;fill-rule:nonzero;fill:rgb(0%,0%,0%);fill-opacity:1;" d="M 40.242188 14.964844 C 40.242188 16.332031 40.269531 16.78125 40.355469 16.738281 C 40.433594 16.695312 40.472656 16.402344 40.460938 15.914062 C 40.453125 15.496094 40.441406 14.699219 40.441406 14.140625 C 40.433594 13.566406 40.394531 13.132812 40.335938 13.132812 C 40.277344 13.132812 40.242188 13.832031 40.242188 14.964844 Z M 40.242188 14.964844 "/>
<path style=" stroke:none;fill-rule:nonzero;fill:rgb(0%,0%,0%);fill-opacity:1;" d="M 44.410156 13.414062 C 44.015625 13.746094 43.804688 14.347656 43.804688 15.101562 C 43.804688 15.59375 43.863281 15.773438 44.179688 16.222656 L 44.554688 16.765625 L 45.433594 16.765625 C 45.953125 16.765625 46.308594 16.710938 46.308594 16.625 C 46.308594 16.542969 46.230469 16.488281 46.136719 16.488281 C 45.847656 16.488281 45.828125 16.347656 46.046875 15.898438 C 46.453125 15.101562 46.261719 13.984375 45.605469 13.414062 C 45.210938 13.0625 44.804688 13.0625 44.410156 13.414062 Z M 45.519531 13.777344 C 46.058594 14.320312 46.125 15.285156 45.683594 15.984375 C 45.5 16.261719 45.363281 16.347656 45.039062 16.347656 C 44.585938 16.332031 44.410156 16.191406 44.152344 15.621094 C 43.640625 14.472656 44.75 12.980469 45.519531 13.777344 Z M 45.519531 13.777344 "/>
<path style=" stroke:none;fill-rule:nonzero;fill:rgb(0%,0%,0%);fill-opacity:1;" d="M 49.582031 14.460938 C 49.582031 15.941406 49.71875 16.527344 50.085938 16.683594 C 50.632812 16.890625 51.132812 16.667969 51.308594 16.109375 C 51.433594 15.703125 51.453125 13.132812 51.328125 13.132812 C 51.183594 13.132812 51.125 13.539062 51.125 14.671875 C 51.125 15.269531 51.097656 15.871094 51.066406 15.996094 C 50.914062 16.585938 50.015625 16.488281 49.921875 15.886719 C 49.890625 15.71875 49.863281 15.046875 49.851562 14.40625 C 49.835938 13.609375 49.785156 13.203125 49.707031 13.160156 C 49.613281 13.121094 49.582031 13.441406 49.582031 14.460938 Z M 49.582031 14.460938 "/>
<path style=" stroke:none;fill-rule:nonzero;fill:rgb(0%,0%,0%);fill-opacity:1;" d="M 54.785156 14.949219 L 54.785156 16.765625 L 55.515625 16.765625 C 56.054688 16.765625 56.238281 16.722656 56.199219 16.585938 C 56.183594 16.488281 55.96875 16.417969 55.640625 16.417969 C 55.0625 16.417969 54.976562 16.332031 54.976562 15.703125 C 54.976562 15.300781 55.007812 15.257812 55.34375 15.171875 C 55.535156 15.132812 55.824219 15.089844 55.988281 15.089844 C 56.480469 15.089844 56.125 14.824219 55.554688 14.78125 L 55.027344 14.738281 L 54.996094 14.152344 L 54.96875 13.566406 L 55.566406 13.523438 C 55.941406 13.496094 56.183594 13.414062 56.210938 13.300781 C 56.238281 13.175781 56.054688 13.132812 55.515625 13.132812 L 54.785156 13.132812 Z M 54.785156 14.949219 "/>
<path style=" stroke:none;fill-rule:nonzero;fill:rgb(0%,0%,0%);fill-opacity:1;" d="M 1.578125 22.171875 C 0.796875 24.308594 0.132812 26.222656 0.101562 26.433594 L 0.0546875 26.824219 L 6.179688 26.824219 C 9.550781 26.824219 12.308594 26.785156 12.308594 26.742188 C 12.308594 26.699219 12.394531 25.707031 12.488281 24.535156 C 12.816406 20.84375 12.808594 20.957031 12.652344 20.957031 C 12.566406 20.957031 12.316406 21.488281 12.058594 22.214844 C 11.816406 22.914062 11.421875 23.792969 11.179688 24.171875 C 10.648438 25.023438 9.628906 25.777344 8.742188 25.988281 C 7.789062 26.195312 3.347656 26.167969 3.347656 25.945312 C 3.347656 25.859375 3.484375 25.429688 3.648438 25.007812 C 3.8125 24.589844 4.304688 23.261719 4.734375 22.074219 C 5.179688 20.886719 5.679688 19.546875 5.84375 19.097656 L 6.160156 18.300781 L 2.984375 18.300781 Z M 1.578125 22.171875 "/>
<path style=" stroke:none;fill-rule:nonzero;fill:rgb(0%,0%,0%);fill-opacity:1;" d="M 16.074219 18.539062 C 16.023438 18.679688 15.71875 19.726562 15.390625 20.886719 C 14.398438 24.339844 14.058594 25.136719 13.269531 25.875 C 13 26.140625 12.789062 26.449219 12.789062 26.574219 C 12.789062 26.796875 12.921875 26.824219 14.273438 26.824219 C 15.265625 26.824219 15.785156 26.769531 15.832031 26.671875 C 15.871094 26.585938 15.71875 26.28125 15.484375 25.972656 L 15.070312 25.429688 L 15.121094 24.476562 C 15.160156 23.75 15.320312 22.996094 15.863281 21.027344 C 16.238281 19.65625 16.546875 18.46875 16.546875 18.414062 C 16.546875 18.191406 16.167969 18.300781 16.074219 18.539062 Z M 16.074219 18.539062 "/>
<path style=" stroke:none;fill-rule:nonzero;fill:rgb(0%,0%,0%);fill-opacity:1;" d="M 24.445312 18.429688 C 24.445312 18.5 24.839844 19.921875 25.320312 21.601562 C 25.800781 23.277344 26.226562 24.871094 26.246094 25.148438 C 26.285156 25.554688 26.234375 25.722656 25.996094 26.097656 C 25.832031 26.363281 25.714844 26.628906 25.742188 26.699219 C 25.820312 26.882812 30.484375 26.867188 30.558594 26.6875 C 30.589844 26.601562 30.339844 26.15625 30 25.664062 C 29.230469 24.589844 29.027344 24.074219 28.105469 20.902344 L 27.363281 18.371094 L 25.898438 18.332031 C 25.039062 18.316406 24.445312 18.34375 24.445312 18.429688 Z M 24.445312 18.429688 "/>
<path style=" stroke:none;fill-rule:nonzero;fill:rgb(0%,0%,0%);fill-opacity:1;" d="M 32.429688 18.402344 C 32.429688 18.46875 32.429688 19.070312 32.429688 19.769531 C 32.4375 20.453125 32.398438 21.851562 32.351562 22.859375 C 32.253906 24.882812 32.148438 25.359375 31.601562 26.097656 C 31.417969 26.335938 31.300781 26.617188 31.332031 26.6875 C 31.371094 26.769531 32.292969 26.824219 33.796875 26.824219 C 36.464844 26.824219 36.492188 26.8125 35.867188 25.972656 C 35.289062 25.21875 35.210938 24.742188 35.15625 21.335938 L 35.105469 18.300781 L 33.777344 18.300781 C 33.035156 18.300781 32.4375 18.34375 32.429688 18.402344 Z M 32.429688 18.402344 "/>
<path style=" stroke:none;fill-rule:nonzero;fill:rgb(0%,0%,0%);fill-opacity:1;" d="M 40.25 19.027344 C 40.886719 21.433594 41.773438 24.226562 42.136719 25.035156 C 42.589844 26.042969 43.207031 26.742188 43.792969 26.921875 C 44.402344 27.117188 48.398438 26.894531 48.5625 26.671875 C 48.621094 26.601562 48.496094 26.335938 48.253906 26.015625 C 47.878906 25.511719 47.851562 25.414062 47.851562 24.773438 C 47.851562 24.015625 48.050781 23.066406 48.804688 20.355469 C 49.074219 19.378906 49.292969 18.511719 49.292969 18.441406 C 49.292969 18.359375 49.207031 18.300781 49.101562 18.300781 C 48.878906 18.300781 48.765625 18.636719 47.886719 21.699219 C 47.097656 24.464844 46.445312 25.832031 45.769531 26.070312 C 45.257812 26.253906 44.84375 25.246094 43.660156 20.984375 L 42.910156 18.300781 L 40.046875 18.300781 Z M 40.25 19.027344 "/>
<path style=" stroke:none;fill-rule:nonzero;fill:rgb(0%,0%,0%);fill-opacity:1;" d="M 57.191406 18.429688 C 57.191406 18.5 57.453125 19.460938 57.78125 20.566406 C 58.675781 23.640625 59.023438 24.96875 59.023438 25.316406 C 59.023438 25.5 58.886719 25.859375 58.726562 26.113281 C 58.503906 26.476562 58.464844 26.617188 58.5625 26.699219 C 58.707031 26.839844 75.496094 26.867188 75.496094 26.742188 C 75.496094 26.699219 75.582031 25.707031 75.675781 24.535156 C 76.003906 20.84375 75.996094 20.957031 75.839844 20.957031 C 75.753906 20.957031 75.511719 21.472656 75.261719 22.171875 C 75.023438 22.859375 74.628906 23.722656 74.386719 24.128906 C 73.828125 25.066406 72.835938 25.792969 71.882812 25.988281 C 70.898438 26.183594 66.535156 26.167969 66.535156 25.972656 C 66.535156 25.820312 67.382812 23.472656 68.605469 20.257812 C 68.886719 19.53125 69.164062 18.792969 69.222656 18.609375 L 69.339844 18.300781 L 66.171875 18.300781 L 64.785156 22.101562 C 64.03125 24.199219 63.394531 25.988281 63.378906 26.085938 C 63.320312 26.40625 63.175781 26.28125 62.597656 25.441406 C 61.960938 24.519531 61.59375 23.527344 60.679688 20.328125 L 60.121094 18.371094 L 58.65625 18.332031 C 57.789062 18.316406 57.191406 18.34375 57.191406 18.429688 Z M 57.191406 18.429688 "/>
</g>
</svg>
