<?xml version="1.0" encoding="UTF-8"?>
<svg xmlns="http://www.w3.org/2000/svg" xmlns:xlink="http://www.w3.org/1999/xlink" width="76px" height="27px" viewBox="0 0 76 27" version="1.1">
<g id="surface1">
<path style=" stroke:none;fill-rule:nonzero;fill:rgb(0%,0%,0%);fill-opacity:1;" d="M 20.6875 1.453125 C 20.421875 2.273438 19.53125 5.203125 18.703125 7.9375 C 17.457031 12.117188 17.074219 13.015625 16.449219 13.328125 C 15.324219 13.910156 16.125 14.457031 18.109375 14.457031 C 19.769531 14.457031 20.035156 14.105469 19.027344 13.210938 C 18.464844 12.742188 18.40625 12.507812 18.671875 11.492188 C 18.9375 10.398438 19.027344 10.359375 20.925781 10.242188 C 22.820312 10.125 22.941406 10.164062 23.207031 11.140625 C 23.652344 12.664062 23.5625 13.171875 22.851562 13.445312 C 21.605469 13.871094 22.910156 14.457031 25.191406 14.457031 C 27.414062 14.457031 28.214844 13.949219 26.941406 13.289062 C 26.050781 12.859375 25.84375 12.3125 23.769531 5.671875 C 21.84375 -0.617188 21.488281 -1.085938 20.6875 1.453125 Z M 21.960938 6.726562 L 22.585938 8.992188 L 19.382812 8.992188 L 20.125 6.570312 C 20.511719 5.242188 20.835938 4.070312 20.835938 3.953125 C 20.835938 3.367188 21.398438 4.773438 21.960938 6.726562 Z M 21.960938 6.726562 "/>
<path style=" stroke:none;fill-rule:nonzero;fill:rgb(0%,0%,0%);fill-opacity:1;" d="M 53.933594 1.0625 C 53.699219 1.6875 52.867188 4.34375 52.097656 7.039062 C 51.121094 10.476562 50.4375 12.234375 49.816406 12.9375 C 48.808594 14.144531 49.105469 14.457031 51.207031 14.457031 C 52.601562 14.457031 53.3125 13.753906 52.273438 13.40625 C 51.59375 13.171875 51.476562 12.15625 51.949219 10.90625 C 52.214844 10.28125 52.601562 10.164062 54.140625 10.164062 C 56.007812 10.164062 56.039062 10.164062 56.363281 11.414062 C 56.660156 12.546875 56.632812 12.742188 56.066406 13.328125 C 55.503906 13.871094 55.476562 13.988281 55.949219 14.183594 C 56.214844 14.339844 57.371094 14.457031 58.496094 14.457031 C 60.128906 14.457031 60.542969 14.339844 60.542969 13.871094 C 60.542969 13.558594 60.363281 13.289062 60.15625 13.289062 C 59.417969 13.289062 58.824219 11.960938 57.132812 6.453125 C 54.972656 -0.539062 54.703125 -0.96875 53.933594 1.0625 Z M 55.386719 8.054688 C 55.5625 8.953125 55.503906 8.992188 54.054688 8.992188 C 53.222656 8.992188 52.542969 8.914062 52.542969 8.835938 C 52.542969 8.757812 52.777344 7.9375 53.105469 7 C 53.402344 6.0625 53.757812 4.929688 53.875 4.5 C 54.054688 3.835938 54.171875 3.953125 54.644531 5.4375 C 54.972656 6.375 55.296875 7.546875 55.386719 8.054688 Z M 55.386719 8.054688 "/>
<path style=" stroke:none;fill-rule:nonzero;fill:rgb(0%,0%,0%);fill-opacity:1;" d="M 0.835938 2 C 0.597656 3.835938 0.863281 4.421875 1.425781 3.328125 C 2.316406 1.648438 2.492188 1.570312 4.597656 1.570312 L 6.671875 1.570312 L 6.136719 2.625 C 5.871094 3.25 4.390625 5.945312 2.847656 8.71875 C 1.339844 11.453125 0.09375 13.871094 0.09375 14.066406 C 0.09375 14.339844 1.871094 14.417969 5.070312 14.378906 L 10.019531 14.261719 L 10.109375 12 C 10.199219 9.5 9.8125 9.070312 9.28125 11.101562 C 8.863281 12.78125 7.976562 13.289062 5.367188 13.289062 C 3.679688 13.289062 3.324219 13.171875 3.441406 12.703125 C 3.5625 12.390625 4.953125 9.734375 6.554688 6.765625 C 8.152344 3.796875 9.574219 1.140625 9.695312 0.867188 C 9.871094 0.515625 8.925781 0.398438 5.457031 0.398438 L 1.042969 0.398438 Z M 0.835938 2 "/>
<path style=" stroke:none;fill-rule:nonzero;fill:rgb(0%,0%,0%);fill-opacity:1;" d="M 33.28125 0.789062 C 33.28125 0.984375 33.488281 1.179688 33.726562 1.179688 C 34.527344 1.179688 34.761719 2.664062 34.761719 7.429688 C 34.761719 11.960938 34.734375 12.195312 34.023438 13.054688 C 33.074219 14.222656 33.429688 14.457031 36.246094 14.457031 C 38.464844 14.457031 39.117188 13.988281 37.753906 13.367188 C 36.894531 12.976562 36.539062 11.804688 36.539062 9.304688 C 36.539062 7.546875 37.191406 8.015625 39.296875 11.335938 C 41.015625 14.066406 41.253906 14.261719 42.4375 14.378906 C 44.039062 14.535156 44.601562 13.949219 43.5625 13.210938 C 42.761719 12.664062 39.800781 8.40625 39.800781 7.78125 C 39.800781 7.585938 39.976562 7.429688 40.214844 7.429688 C 40.421875 7.429688 40.957031 7 41.398438 6.453125 C 42.882812 4.617188 42.230469 1.570312 40.15625 0.789062 C 38.734375 0.28125 33.28125 0.28125 33.28125 0.789062 Z M 39.621094 2.429688 C 40.71875 4.5 39.742188 6.648438 37.726562 6.648438 L 36.539062 6.648438 L 36.539062 4.382812 C 36.539062 3.132812 36.628906 1.960938 36.75 1.84375 C 36.835938 1.6875 37.429688 1.570312 38.050781 1.570312 C 38.882812 1.570312 39.296875 1.804688 39.621094 2.429688 Z M 39.621094 2.429688 "/>
<path style=" stroke:none;fill-rule:nonzero;fill:rgb(0%,0%,0%);fill-opacity:1;" d="M 66.617188 2 C 66.378906 3.835938 66.644531 4.421875 67.210938 3.328125 C 68.097656 1.648438 68.277344 1.570312 70.378906 1.570312 L 72.453125 1.570312 L 71.921875 2.625 C 71.652344 3.25 70.171875 5.945312 68.632812 8.71875 C 67.121094 11.453125 65.875 13.871094 65.875 14.066406 C 65.875 14.339844 67.652344 14.417969 70.855469 14.378906 L 75.800781 14.261719 L 75.890625 12 C 75.980469 9.5 75.59375 9.070312 75.0625 11.101562 C 74.882812 11.84375 74.441406 12.585938 73.996094 12.859375 C 73.136719 13.367188 69.136719 13.445312 69.136719 12.9375 C 69.136719 12.742188 70.378906 10.320312 71.921875 7.546875 C 73.433594 4.773438 74.914062 2.039062 75.210938 1.453125 L 75.714844 0.398438 L 66.824219 0.398438 Z M 66.617188 2 "/>
<path style=" stroke:none;fill-rule:nonzero;fill:rgb(0%,0%,0%);fill-opacity:1;" d="M 16.390625 24.261719 L 16.390625 26.996094 L 17.515625 26.878906 C 18.40625 26.800781 18.644531 26.605469 18.703125 25.824219 C 18.761719 25.316406 18.671875 24.730469 18.523438 24.535156 C 18.316406 24.261719 18.316406 23.871094 18.554688 23.363281 C 18.851562 22.738281 18.820312 22.503906 18.347656 22.035156 C 18.019531 21.722656 17.457031 21.488281 17.074219 21.488281 C 16.421875 21.488281 16.390625 21.644531 16.390625 24.261719 Z M 18.050781 22.699219 C 18.347656 23.363281 17.367188 24.496094 16.953125 23.949219 C 16.746094 23.675781 16.6875 23.207031 16.777344 22.894531 C 16.984375 22.191406 17.753906 22.074219 18.050781 22.699219 Z M 18.199219 25.238281 C 18.496094 25.746094 18.496094 25.902344 18.140625 26.214844 C 17.429688 26.800781 16.6875 26.605469 16.6875 25.863281 C 16.6875 24.496094 17.515625 24.183594 18.199219 25.238281 Z M 18.199219 25.238281 "/>
<path style=" stroke:none;fill-rule:nonzero;fill:rgb(0%,0%,0%);fill-opacity:1;" d="M 22.464844 22.464844 C 21.101562 24.222656 21.902344 26.957031 23.800781 26.957031 C 25.726562 26.957031 26.585938 23.871094 25.101562 22.308594 C 24.066406 21.253906 23.355469 21.292969 22.464844 22.464844 Z M 25.191406 23.402344 C 25.960938 25.511719 24.007812 27.582031 22.792969 25.941406 C 22.230469 25.199219 22.167969 23.402344 22.671875 22.738281 C 23.296875 21.917969 24.777344 22.347656 25.191406 23.402344 Z M 25.191406 23.402344 "/>
<path style=" stroke:none;fill-rule:nonzero;fill:rgb(0%,0%,0%);fill-opacity:1;" d="M 28.835938 23.480469 C 28.835938 24.574219 28.984375 25.785156 29.132812 26.214844 C 29.519531 27.113281 30.96875 27.230469 31.53125 26.332031 C 32.035156 25.550781 32.304688 21.488281 31.828125 21.488281 C 31.621094 21.488281 31.503906 22.308594 31.503906 23.597656 C 31.503906 25.902344 31.027344 26.800781 30.023438 26.371094 C 29.519531 26.175781 29.429688 25.785156 29.429688 23.792969 C 29.429688 22.503906 29.308594 21.488281 29.132812 21.488281 C 28.984375 21.488281 28.835938 22.386719 28.835938 23.480469 Z M 28.835938 23.480469 "/>
<path style=" stroke:none;fill-rule:nonzero;fill:rgb(0%,0%,0%);fill-opacity:1;" d="M 34.761719 21.878906 C 34.761719 22.074219 35.03125 22.269531 35.355469 22.269531 C 35.890625 22.269531 35.949219 22.542969 35.949219 24.613281 C 35.949219 25.902344 36.066406 26.957031 36.246094 26.957031 C 36.421875 26.957031 36.539062 25.902344 36.539062 24.613281 C 36.539062 22.777344 36.628906 22.269531 36.984375 22.269531 C 37.222656 22.269531 37.429688 22.074219 37.429688 21.878906 C 37.429688 21.644531 36.835938 21.488281 36.097656 21.488281 C 35.355469 21.488281 34.761719 21.644531 34.761719 21.878906 Z M 34.761719 21.878906 "/>
<path style=" stroke:none;fill-rule:nonzero;fill:rgb(0%,0%,0%);fill-opacity:1;" d="M 40.394531 24.222656 C 40.394531 25.785156 40.511719 26.957031 40.6875 26.957031 C 40.867188 26.957031 40.984375 25.785156 40.984375 24.222656 C 40.984375 22.660156 40.867188 21.488281 40.6875 21.488281 C 40.511719 21.488281 40.394531 22.660156 40.394531 24.222656 Z M 40.394531 24.222656 "/>
<path style=" stroke:none;fill-rule:nonzero;fill:rgb(0%,0%,0%);fill-opacity:1;" d="M 44.6875 22.464844 C 43.800781 23.597656 43.742188 25.121094 44.542969 26.175781 C 45.015625 26.800781 45.519531 26.957031 46.851562 26.917969 C 47.769531 26.917969 48.304688 26.800781 48.039062 26.644531 C 47.652344 26.449219 47.59375 26.214844 47.800781 25.785156 C 48.335938 24.652344 48.125 23.128906 47.328125 22.308594 C 46.289062 21.253906 45.578125 21.292969 44.6875 22.464844 Z M 47.414062 23.402344 C 48.1875 25.511719 46.230469 27.582031 45.015625 25.941406 C 44.453125 25.199219 44.394531 23.402344 44.898438 22.738281 C 45.519531 21.917969 47 22.347656 47.414062 23.402344 Z M 47.414062 23.402344 "/>
<path style=" stroke:none;fill-rule:nonzero;fill:rgb(0%,0%,0%);fill-opacity:1;" d="M 51.414062 23.636719 C 51.355469 26.292969 51.652344 26.957031 52.898438 26.957031 C 53.964844 26.957031 54.320312 25.980469 54.289062 23.363281 L 54.230469 21.292969 L 53.964844 23.714844 C 53.757812 25.589844 53.550781 26.214844 53.105469 26.371094 C 52.15625 26.761719 51.683594 25.902344 51.5625 23.519531 L 51.476562 21.292969 Z M 51.414062 23.636719 "/>
<path style=" stroke:none;fill-rule:nonzero;fill:rgb(0%,0%,0%);fill-opacity:1;" d="M 57.578125 24.222656 L 57.578125 26.957031 L 59.148438 26.878906 C 60.632812 26.839844 60.632812 26.800781 59.445312 26.683594 C 58.320312 26.527344 58.171875 26.410156 58.171875 25.550781 C 58.171875 24.769531 58.320312 24.613281 59.0625 24.613281 C 59.5625 24.613281 59.949219 24.417969 59.949219 24.222656 C 59.949219 23.988281 59.859375 23.871094 59.742188 23.871094 C 58.765625 24.066406 58.171875 23.753906 58.171875 23.050781 C 58.171875 22.425781 58.378906 22.269531 59.207031 22.269531 C 59.773438 22.269531 60.246094 22.074219 60.246094 21.878906 C 60.246094 21.644531 59.652344 21.488281 58.914062 21.488281 L 57.578125 21.488281 Z M 57.578125 24.222656 "/>
</g>
</svg>
