<svg version="1.0" xmlns="http://www.w3.org/2000/svg" preserveAspectRatio="xMidYMid meet" viewBox="103.8 394 787.88 193.25">

<g transform="translate(0.000000,1000.000000) scale(0.100000,-0.100000)" fill="#000000" stroke="none">
<path d="M3195 6004 c-66 -29 -124 -55 -129 -57 -5 -2 3 -34 19 -72 19 -49 25 -79 21 -103 -3 -19 -46 -137 -96 -263 -49 -125 -90 -235 -90 -244 0 -10 7 -15 18 -13 21 4 44 51 134 277 38 97 73 180 77 184 4 4 52 -98 106 -228 l98 -235 149 0 c122 0 148 2 148 14 0 16 -317 777 -328 787 -4 4 -61 -17 -127 -47z"/>
<path d="M6660 6035 c-25 -13 -80 -39 -123 -56 -58 -25 -77 -37 -73 -49 3 -8 15 -43 28 -77 l22 -61 -21 -69 c-11 -37 -55 -151 -97 -253 -42 -101 -76 -192 -76 -201 0 -12 6 -16 21 -12 23 6 32 26 134 278 37 94 71 173 75 178 3 4 48 -93 100 -215 51 -123 95 -226 99 -230 3 -3 72 -8 154 -10 109 -2 147 0 147 9 0 11 -264 647 -311 751 -10 23 -22 42 -27 42 -4 -1 -27 -12 -52 -25z"/>
<path d="M1135 6028 c-7 -20 -53 -402 -49 -407 11 -13 37 18 69 81 54 106 98 162 166 207 100 67 178 81 467 81 136 0 202 -3 202 -11 0 -5 -53 -110 -119 -232 -194 -365 -251 -474 -251 -486 0 -8 46 -11 161 -9 l160 3 130 240 c217 399 269 502 269 524 l0 21 -600 0 c-472 0 -602 -3 -605 -12z"/>
<path d="M4286 6031 c-10 -15 4 -38 29 -49 13 -6 34 -30 46 -53 26 -52 38 -203 39 -486 l0 -193 140 0 140 0 2 368 3 367 104 3 c159 4 270 -36 366 -132 144 -144 166 -398 48 -558 l-35 -48 102 0 c112 0 136 8 186 62 87 95 128 238 104 368 -37 206 -203 317 -521 350 -125 12 -746 13 -753 1z"/>
<path d="M7695 6028 c-7 -18 -53 -402 -49 -407 12 -13 39 20 76 94 67 135 158 217 280 252 70 20 548 32 548 14 0 -7 -53 -112 -119 -234 -193 -362 -251 -474 -251 -486 0 -8 46 -11 161 -9 l160 3 131 240 c196 363 279 525 273 535 -10 16 -1204 13 -1210 -2z"/>
<path d="M3120 4990 l0 -130 48 0 c58 0 94 17 106 51 11 33 0 79 -19 79 -18 0 -18 2 -4 34 19 41 4 74 -39 85 -20 6 -49 11 -64 11 l-28 0 0 -130z m94 94 c22 -9 20 -51 -3 -64 -46 -24 -71 -8 -71 46 0 20 5 24 29 24 16 0 36 -3 45 -6z m19 -108 c20 -15 23 -59 5 -73 -7 -6 -29 -13 -49 -17 -29 -5 -38 -3 -43 10 -10 26 -7 69 6 82 16 16 59 15 81 -2z"/>
<path d="M3670 5098 c-44 -30 -60 -61 -60 -116 0 -37 6 -50 33 -77 58 -58 130 -59 184 -2 40 41 50 91 26 136 -39 74 -121 101 -183 59z m136 -42 c37 -37 41 -59 20 -111 -17 -40 -42 -55 -93 -55 -96 1 -135 113 -62 174 45 38 92 35 135 -8z"/>
<path d="M4210 5025 c0 -52 5 -105 11 -118 13 -29 48 -47 89 -47 72 0 90 33 90 165 0 52 -4 95 -9 95 -14 0 -18 -26 -20 -120 -2 -72 -5 -88 -22 -102 -14 -12 -30 -16 -48 -12 -60 15 -61 16 -61 129 0 87 -3 105 -15 105 -12 0 -15 -17 -15 -95z"/>
<path d="M4730 5105 c0 -10 10 -15 30 -15 l30 0 0 -116 c0 -85 3 -115 12 -112 6 2 12 24 13 49 1 24 2 74 3 111 2 63 3 67 27 70 54 7 27 23 -42 26 -60 2 -73 0 -73 -13z"/>
<path d="M5210 4989 c0 -98 3 -130 12 -127 8 3 12 24 11 59 -1 30 -2 87 -2 127 -1 41 -5 72 -11 72 -6 0 -10 -50 -10 -131z"/>
<path d="M5643 5100 c-41 -24 -63 -67 -63 -121 0 -35 6 -48 39 -80 l39 -39 91 0 c54 0 91 4 91 10 0 6 -8 10 -18 10 -30 0 -32 10 -9 42 42 57 22 137 -46 178 -41 25 -83 25 -124 0z m115 -26 c56 -39 63 -108 17 -158 -19 -20 -33 -26 -67 -26 -47 1 -65 11 -92 52 -53 82 62 189 142 132z"/>
<path d="M6180 5025 c0 -106 14 -148 52 -159 57 -15 109 1 127 41 13 29 15 213 2 213 -15 0 -21 -29 -21 -110 0 -43 -3 -86 -6 -95 -16 -42 -109 -35 -119 8 -3 12 -6 60 -7 106 -2 57 -7 86 -15 89 -10 3 -13 -20 -13 -93z"/>
<path d="M6720 4990 l0 -130 76 0 c56 0 75 3 71 13 -2 7 -24 12 -58 12 -60 0 -69 6 -69 51 0 29 3 32 38 38 20 3 50 6 67 6 51 0 14 19 -45 22 l-55 3 -3 42 -3 42 62 3 c39 2 64 8 67 16 3 9 -16 12 -72 12 l-76 0 0 -130z"/>
<path d="M1196 4473 c-81 -153 -150 -290 -153 -305 l-5 -28 636 0 c350 0 636 3 636 6 0 3 9 74 19 158 34 264 33 256 17 256 -9 0 -35 -38 -62 -90 -25 -50 -66 -113 -91 -140 -55 -61 -161 -115 -253 -130 -99 -15 -560 -13 -560 3 0 6 14 37 31 67 17 30 68 125 113 210 46 85 98 181 115 213 l33 57 -165 0 -165 0 -146 -277z"/>
<path d="M2701 4733 c-5 -10 -37 -85 -71 -168 -103 -247 -138 -304 -220 -357 -28 -19 -50 -41 -50 -50 0 -16 14 -18 154 -18 103 0 157 4 162 11 4 6 -12 28 -36 50 l-43 39 5 68 c4 52 21 106 77 247 39 98 71 183 71 187 0 16 -39 8 -49 -9z"/>
<path d="M3570 4741 c0 -5 41 -107 91 -227 50 -120 94 -234 96 -254 4 -29 -1 -41 -26 -68 -17 -19 -29 -38 -26 -43 8 -13 492 -12 500 1 3 6 -23 38 -58 73 -80 77 -101 114 -197 341 l-77 181 -152 3 c-89 1 -151 -1 -151 -7z"/>
<path d="M4399 4743 c0 -5 0 -48 0 -98 1 -49 -3 -149 -8 -221 -10 -145 -21 -179 -78 -232 -19 -17 -31 -37 -28 -42 4 -6 100 -10 256 -10 277 0 280 1 215 61 -60 54 -68 88 -74 332 l-5 217 -138 0 c-77 0 -139 -3 -140 -7z"/>
<path d="M5211 4698 c66 -172 158 -372 196 -430 47 -72 111 -122 172 -135 63 -14 478 2 495 18 6 5 -7 24 -32 47 -39 36 -42 43 -42 89 0 54 21 122 99 316 28 70 51 132 51 137 0 6 -9 10 -20 10 -23 0 -35 -24 -126 -243 -82 -198 -150 -296 -220 -313 -53 -13 -96 59 -219 364 l-78 192 -149 0 -148 0 21 -52z"/>
<path d="M6970 4741 c0 -5 27 -74 61 -153 93 -220 129 -315 129 -340 0 -13 -14 -39 -31 -57 -23 -26 -27 -36 -17 -42 15 -10 1758 -12 1758 -3 0 3 9 74 19 158 34 264 33 256 17 256 -9 0 -34 -37 -60 -87 -25 -49 -66 -111 -91 -140 -58 -67 -161 -119 -260 -133 -102 -14 -555 -13 -555 1 0 11 88 179 215 409 29 52 58 105 64 118 l12 22 -165 0 -164 0 -144 -272 c-78 -150 -144 -278 -146 -285 -6 -23 -21 -14 -81 46 -66 66 -104 137 -199 366 l-58 140 -152 3 c-90 1 -152 -1 -152 -7z"/>
</g>
</svg>